<?xml version="1.0" encoding="utf-8"?>

<!-- License: MIT. Made by jtblabs: https://github.com/jtblabs/jtb-icons -->
<svg fill="#000000" width="32px" height="32px" viewBox="0 0 32 32" version="1.1" xmlns="http://www.w3.org/2000/svg">
<title>b</title>
<path d="M24.508 17.663c-0.724-0.892-1.682-1.568-2.782-1.936l-0.043-0.012c0.838-0.438 1.529-1.055 2.040-1.804l0.012-0.019c0.665-0.96 1.063-2.151 1.063-3.433 0-0.023-0-0.045-0-0.068l0 0.003c0-0.021 0-0.046 0-0.070 0-1.626-0.695-3.090-1.803-4.111l-0.004-0.004c-1.213-1.072-2.816-1.727-4.573-1.727-0.136 0-0.271 0.004-0.405 0.012l0.019-0.001h-9.951c-0 0-0 0-0.001 0-0.165 0-0.299 0.134-0.299 0.299 0 0 0 0 0 0.001v-0 22.4c0 0 0 0 0 0.001 0 0.166 0.134 0.3 0.3 0.3h10.975c0.114 0.007 0.248 0.011 0.382 0.011 1.761 0 3.368-0.661 4.586-1.749l-0.007 0.006c1.113-1.051 1.806-2.536 1.806-4.184 0-0.040-0-0.079-0.001-0.119l0 0.006c0-0.020 0-0.044 0-0.067 0-1.419-0.496-2.722-1.324-3.746l0.009 0.011zM9.31 16.581h9.747c0.086-0.005 0.188-0.008 0.289-0.008 1.38 0 2.632 0.554 3.543 1.451l-0.001-0.001c0.848 0.859 1.372 2.040 1.372 3.343 0 0.024-0 0.047-0.001 0.071l0-0.004c0.001 0.026 0.001 0.057 0.001 0.088 0 1.229-0.517 2.338-1.346 3.119l-0.002 0.002c-0.938 0.828-2.177 1.334-3.535 1.334-0.124 0-0.247-0.004-0.368-0.012l0.016 0.001h-9.716zM18.002 6.021c0.101-0.007 0.219-0.010 0.338-0.010 1.351 0 2.588 0.487 3.545 1.295l-0.008-0.007c0.836 0.75 1.36 1.834 1.36 3.041 0 0.030-0 0.060-0.001 0.090l0-0.004c0 0.014 0 0.030 0 0.046 0 1.226-0.451 2.347-1.197 3.205l0.005-0.006c-0.693 0.848-1.739 1.384-2.911 1.384-0.038 0-0.076-0.001-0.114-0.002l0.006 0h-9.716v-9.032z"></path>
</svg>