<?xml version="1.0" encoding="UTF-8"?>
<svg version="1.1" xmlns="http://www.w3.org/2000/svg" width="1024" height="329">
<path d="M0 0 C337.92 0 675.84 0 1024 0 C1024 108.57 1024 217.14 1024 329 C686.08 329 348.16 329 0 329 C0 220.43 0 111.86 0 0 Z " fill="#FDFEFE" transform="translate(0,0)"/>
<path d="M0 0 C9.83225849 -0.06982928 19.66445697 -0.1229773 29.49691391 -0.15543652 C34.06362482 -0.17102345 38.63016478 -0.19213267 43.19677734 -0.22631836 C47.61235459 -0.25916263 52.02776848 -0.2769053 56.44345856 -0.28463173 C58.11938291 -0.29013062 59.79529938 -0.30086722 61.47115326 -0.31719017 C75.18594929 -0.44533474 90.34665184 0.09769716 101.0703125 9.890625 C108.2279879 17.73711435 110.47685948 25.0643843 110.41796875 35.53515625 C109.73452285 41.20073116 107.16033255 45.34641033 104 50 C103.4225 50.928125 102.845 51.85625 102.25 52.8125 C97.17364063 57.74784939 89.41140039 62.80393776 82.1875 63.125 C81.465625 63.08375 80.74375 63.0425 80 63 C80 63.66 80 64.32 80 65 C80.97839844 65.07347656 80.97839844 65.07347656 81.9765625 65.1484375 C86.93264804 65.57240942 91.36418274 66.08520591 96 68 C96.60199219 68.24363281 97.20398438 68.48726563 97.82421875 68.73828125 C106.78189893 72.73316023 113.04552041 78.80759312 117.125 87.703125 C120.70559846 97.10219595 119.76406284 107.78159704 116 117 C109.96507902 127.84781746 100.31931307 132.12390768 89 136 C88.06548508 136.33947159 87.13097015 136.67894318 86.1681366 137.02870178 C75.85257544 140.19128201 64.13840337 139.13623086 53.41796875 139.09765625 C51.86713202 139.09578578 50.31629469 139.09436486 48.76545715 139.09336853 C44.72962749 139.08959284 40.69383517 139.07980628 36.65802002 139.06866455 C32.52136744 139.05834259 28.38470869 139.05384806 24.24804688 139.04882812 C16.16534766 139.03817836 8.0826785 139.02116324 0 139 C0 136.69 0 134.38 0 132 C0.74765625 131.90203125 1.4953125 131.8040625 2.265625 131.703125 C3.74289063 131.47882813 3.74289063 131.47882813 5.25 131.25 C6.71179688 131.04117188 6.71179688 131.04117188 8.203125 130.828125 C11.77483534 129.77057948 12.83621767 129.0709336 15 126 C15.59519196 122.36443221 15.50437313 118.75711046 15.45410156 115.08105469 C15.45468567 113.96856354 15.45526978 112.85607239 15.45587158 111.70986938 C15.45308337 108.03022128 15.42195497 104.35138172 15.390625 100.671875 C15.38316527 98.12168826 15.37747108 95.57149579 15.37347412 93.02130127 C15.35975855 86.99347463 15.32822882 80.96599542 15.28807616 74.938308 C15.24335073 68.07502537 15.22136954 61.2117288 15.20129442 54.3483367 C15.15949561 40.23206366 15.08914848 26.11604773 15 12 C13.57622419 11.3445842 12.1499513 10.6945912 10.72265625 10.046875 C9.92867432 9.68432617 9.13469238 9.32177734 8.31665039 8.94824219 C5.57335141 7.82536588 2.94368518 7.30191643 0 7 C0 4.69 0 2.38 0 0 Z " fill="#040403" transform="translate(187,78)"/>
<path d="M0 0 C1.30904297 -0.01740234 1.30904297 -0.01740234 2.64453125 -0.03515625 C9.62569067 -0.00412887 16.21217543 1.23108771 22.5 4.375 C24.74974161 4.52995763 27.00371536 4.62510928 29.2578125 4.69140625 C29.92086395 4.71218735 30.58391541 4.73296844 31.26705933 4.75437927 C33.38626694 4.81979231 35.505599 4.87872105 37.625 4.9375 C39.06121081 4.98069309 40.49740902 5.02430764 41.93359375 5.06835938 C45.45559594 5.17546499 48.97773825 5.27675575 52.5 5.375 C52.5 8.675 52.5 11.975 52.5 15.375 C46.56 15.375 40.62 15.375 34.5 15.375 C35.304375 16.7775 36.10875 18.18 36.9375 19.625 C41.26279739 27.16654416 41.37243298 34.85200085 40.5 43.375 C37.57962632 52.46987804 32.18644192 60.01078279 23.75 64.625 C13.15803791 69.22055347 3.69401222 69.65628516 -7.7109375 69.08203125 C-14.13750262 68.81193563 -14.13750262 68.81193563 -19.734375 71.65625 C-21.99928794 75.14381506 -21.9540615 77.28844651 -21.5 81.375 C-21.17 82.365 -20.84 83.355 -20.5 84.375 C-15.08516286 86.49529425 -9.99637934 86.66866864 -4.234375 86.68359375 C-2.43879895 86.70876161 -0.64322611 86.73415951 1.15234375 86.75976562 C3.94741926 86.78839667 6.74243893 86.81244901 9.53759766 86.83129883 C36.354324 87.04691308 36.354324 87.04691308 44.83984375 95.4453125 C50.38478377 101.89048984 51.1015589 107.50352361 50.8125 115.9765625 C49.82406017 126.72584561 44.50300977 134.25745823 36.3125 141.125 C20.44466517 152.66524352 -1.01772473 154.4212177 -19.9284668 151.54980469 C-30.83148046 149.64290165 -38.05678382 145.79021907 -45.25 137.3125 C-48.42443668 132.39212314 -48.2774803 126.00029861 -47.5 120.375 C-44.61676853 113.30998243 -39.19520075 108.78955238 -32.5 105.375 C-31.84 105.375 -31.18 105.375 -30.5 105.375 C-30.5 104.715 -30.5 104.055 -30.5 103.375 C-31.551875 103.0965625 -31.551875 103.0965625 -32.625 102.8125 C-37.40357424 100.42321288 -40.81170965 96.43987106 -42.5 91.375 C-43.00893963 84.75878486 -41.70965283 79.97459156 -37.375 74.875 C-26.45 65.375 -26.45 65.375 -23.5 65.375 C-25.66892065 63.13198579 -27.96277382 61.16327281 -30.375 59.1875 C-37.07971946 53.33319533 -40.91663366 46.62150728 -41.75390625 37.65625 C-42.12408907 28.38973801 -40.25410816 20.38706265 -34.375 13.0625 C-25.04947094 3.35917766 -13.14385924 -0.17473373 0 0 Z " fill="#020202" transform="translate(525.5,114.625)"/>
<path d="M0 0 C2.17674783 0.15469367 4.3578348 0.25002106 6.5390625 0.31640625 C7.84101562 0.35830078 9.14296875 0.40019531 10.484375 0.44335938 C11.86458045 0.48317299 13.24478883 0.52288522 14.625 0.5625 C16.01303415 0.60569407 17.40105528 0.64930865 18.7890625 0.69335938 C22.19260256 0.79972 25.59621778 0.90174714 29 1 C29 4.3 29 7.6 29 11 C23.39 11 17.78 11 12 11 C12.804375 12.546875 13.60875 14.09375 14.4375 15.6875 C18.90357481 24.2761054 18.9539842 32.24620935 16.5 41.5 C13.42442773 50.65196333 8.50724391 55.96904865 0 60.4375 C-11.08000976 65.41247951 -22.70039192 66.56208903 -34.6875 64.1875 C-38.19857392 63.61675749 -38.19857392 63.61675749 -40.9375 66.375 C-41.618125 67.24125 -42.29875 68.1075 -43 69 C-43.33 69.33 -43.66 69.66 -44 70 C-44.50886541 75.0525546 -44.50886541 75.0525546 -42.1875 79.375 C-39.13103536 81.64551659 -36.66571967 82.12380271 -32.96264648 82.15771484 C-32.15427841 82.16797699 -31.34591034 82.17823914 -30.51304626 82.18881226 C-29.20527977 82.19976425 -29.20527977 82.19976425 -27.87109375 82.2109375 C-26.01236132 82.23902813 -24.15363749 82.26769271 -22.29492188 82.296875 C-19.37459763 82.33794779 -16.45443013 82.37484626 -13.53393555 82.40136719 C-10.70848573 82.42923016 -7.88375851 82.47512113 -5.05859375 82.5234375 C-4.20091904 82.52669037 -3.34324432 82.52994324 -2.45957947 82.53329468 C7.08955073 82.72379206 16.18012289 84.94386848 23 92 C27.84377429 99.41308065 29.10296536 106.86826039 27.5390625 115.5625 C24.48066843 127.07645413 17.4378664 135.04024916 7.23144531 141.03955078 C2.14793823 143.76638962 -2.85239199 145.17697103 -8.5 146.25 C-9.81158081 146.50148804 -9.81158081 146.50148804 -11.1496582 146.75805664 C-27.37721572 149.66327241 -46.36923282 149.47100522 -60.82421875 140.609375 C-65.44181241 137.19384791 -68.14198815 133.47036967 -70 128 C-70.86221941 121.98933582 -71.04608979 116.6174561 -67.375 111.5625 C-63.46796834 107.13023059 -59.35120906 103.57650807 -54 101 C-53.67 100.34 -53.34 99.68 -53 99 C-54.051875 98.7215625 -54.051875 98.7215625 -55.125 98.4375 C-59.53128888 96.23435556 -62.79500745 92.40998511 -65 88 C-65.80734615 82.5938467 -65.55221316 78.10836225 -62.6875 73.375 C-58.78928807 68.13064295 -53.5705619 64.3405167 -48 61 C-47.34 61 -46.68 61 -46 61 C-47.82544029 58.97173301 -49.42036554 57.75712213 -51.8125 56.375 C-56.06257351 53.20827856 -58.3572478 49.5371144 -61 45 C-61.928125 43.4221875 -61.928125 43.4221875 -62.875 41.8125 C-65.43290278 33.14405168 -65.16990729 23.13525308 -61 15 C-55.35855707 5.49214758 -46.44123927 -0.74002282 -35.796875 -3.58984375 C-24.31026961 -5.27433197 -10.54136526 -5.27068263 0 0 Z " fill="#020202" transform="translate(651,119)"/>
<path d="M0 0 C10.31917088 9.76697445 16.94935541 22.65880554 17.5234375 36.9609375 C17.56339844 37.75113281 17.60335937 38.54132813 17.64453125 39.35546875 C18.02453751 53.54982026 13.75572475 66.92489472 4.55078125 77.90234375 C-5.7185011 88.32991947 -18.9362177 93.98940256 -33.5390625 94.2109375 C-48.32738639 94.05934876 -60.50734018 89.51791042 -71.21875 79.34375 C-83.1879929 66.71185005 -84.89318196 52.00547796 -84.68359375 35.3671875 C-84.32331779 22.42377621 -79.14209283 11.66612567 -70.3515625 2.1484375 C-51.57021945 -15.44907303 -19.91247842 -16.39481661 0 0 Z " fill="#030303" transform="translate(454.4765625,126.0390625)"/>
<path d="M0 0 C1.27536621 0.00733154 2.55073242 0.01466309 3.86474609 0.0222168 C3.86897803 0.7522032 3.87320997 1.4821896 3.87757015 2.2342968 C3.98076759 19.9769334 4.08938884 37.71952916 4.20408535 55.46209526 C4.25941965 64.04218038 4.31290198 72.62226967 4.36206055 81.20239258 C4.40489985 88.6787411 4.45117719 96.15505897 4.50162464 103.63136017 C4.52822763 107.59187555 4.55308075 111.55238485 4.57382011 115.51293564 C4.59337881 119.23765937 4.61752025 122.96232477 4.64523697 126.68699646 C4.65461148 128.05681933 4.66228532 129.42665502 4.66816521 130.79649734 C4.67641948 132.66130335 4.69128519 134.52607665 4.70652771 136.39083862 C4.71298026 137.43615187 4.71943281 138.48146511 4.72608089 139.55845451 C4.70175936 142.0264487 4.70175936 142.0264487 5.86474609 144.0222168 C8.44426483 144.71315575 8.44426483 144.71315575 11.42724609 145.1472168 C12.94511719 145.39858398 12.94511719 145.39858398 14.49365234 145.6550293 C15.27611328 145.77620117 16.05857422 145.89737305 16.86474609 146.0222168 C16.86474609 148.3322168 16.86474609 150.6422168 16.86474609 153.0222168 C-0.29525391 153.0222168 -17.45525391 153.0222168 -35.13525391 153.0222168 C-35.13525391 150.7122168 -35.13525391 148.4022168 -35.13525391 146.0222168 C-34.36439453 145.90104492 -33.59353516 145.77987305 -32.79931641 145.6550293 C-31.79642578 145.48745117 -30.79353516 145.31987305 -29.76025391 145.1472168 C-28.76251953 144.98479492 -27.76478516 144.82237305 -26.73681641 144.6550293 C-23.99274241 144.22633659 -23.99274241 144.22633659 -22.13525391 142.0222168 C-21.83120536 139.78742038 -21.83120536 139.78742038 -21.88128662 137.16357422 C-21.87564697 136.13718842 -21.87000732 135.11080261 -21.86419678 134.05331421 C-21.87026947 132.35762802 -21.87026947 132.35762802 -21.87646484 130.62768555 C-21.87120789 128.84716293 -21.87120789 128.84716293 -21.86584473 127.03067017 C-21.85853612 123.77037305 -21.86026952 120.51023756 -21.8666029 117.24994278 C-21.87165711 113.84224348 -21.86697306 110.43455518 -21.86383057 107.02685547 C-21.86018922 101.30360976 -21.8649944 95.58041562 -21.87451172 89.85717773 C-21.88539662 83.23495571 -21.88187116 76.61285682 -21.87085891 69.99063778 C-21.8617908 64.31077233 -21.86049841 58.630944 -21.86573625 52.95107365 C-21.86885858 49.55617822 -21.86925811 46.16134071 -21.86266327 42.76644897 C-21.85760777 38.98312954 -21.86529472 35.20004956 -21.87646484 31.41674805 C-21.87241638 30.28629059 -21.86836792 29.15583313 -21.86419678 27.99111938 C-21.87265625 26.45154068 -21.87265625 26.45154068 -21.88128662 24.88085938 C-21.8824177 23.53801628 -21.8824177 23.53801628 -21.88357162 22.16804504 C-21.93554629 19.8086435 -21.93554629 19.8086435 -24.13525391 18.0222168 C-26.56778052 17.56059252 -26.56778052 17.56059252 -29.26025391 17.3972168 C-30.17033203 17.32245117 -31.08041016 17.24768555 -32.01806641 17.1706543 C-32.71673828 17.12166992 -33.41541016 17.07268555 -34.13525391 17.0222168 C-34.13525391 14.7122168 -34.13525391 12.4022168 -34.13525391 10.0222168 C-33.26384766 9.79147461 -32.39244141 9.56073242 -31.49462891 9.32299805 C-24.29783046 7.35244609 -17.50094737 5.10046199 -10.65869141 2.07299805 C-6.93018674 0.52041638 -4.02661731 -0.02314733 0 0 Z " fill="#050505" transform="translate(348.13525390625,63.977783203125)"/>
<path d="M0 0 C0 10.56 0 21.12 0 32 C8.58 32 17.16 32 26 32 C26 34.97 26 37.94 26 41 C17.42 41 8.84 41 0 41 C0.06299689 49.63231438 0.13847346 58.26427477 0.23571491 66.89627266 C0.28037715 70.90478619 0.31964218 74.91319905 0.34643555 78.921875 C0.37251025 82.79297374 0.4129415 86.66368427 0.46318626 90.53454208 C0.47982694 92.00880975 0.49135864 93.48314452 0.49761391 94.95749283 C0.507286 97.02822485 0.5353794 99.09797 0.56762695 101.16845703 C0.58428154 102.93384323 0.58428154 102.93384323 0.60127258 104.7348938 C1.13350412 109.0932409 2.80629958 112.28855001 5.296875 115.859375 C7.91353244 117.61181531 10.14306911 117.32225421 13.25 117.25 C14.98056641 117.21132812 14.98056641 117.21132812 16.74609375 117.171875 C20.23772967 116.98744285 23.56550515 116.63897579 27 116 C28.286257 118.11854094 29.04580396 119.44253235 28.83984375 121.94921875 C26.86243377 126.777778 20.33565526 128.83217237 15.8984375 131.05078125 C11.00287695 133.04491885 6.11416908 133.29945236 0.875 133.375 C0.20581543 133.38901855 -0.46336914 133.40303711 -1.15283203 133.41748047 C-7.43635524 133.35704708 -11.97638286 131.74766935 -16.75 127.625 C-22.29146217 121.1599608 -24.25644964 115.11394602 -24.22705078 106.61767578 C-24.22734283 105.90478897 -24.22763489 105.19190216 -24.22793579 104.45741272 C-24.22655138 102.11991868 -24.2110326 99.78275031 -24.1953125 97.4453125 C-24.1915792 95.81721165 -24.18873372 94.18910854 -24.18673706 92.56100464 C-24.17912556 88.28993452 -24.15949856 84.01900189 -24.1373291 79.74798584 C-24.11681703 75.38409281 -24.1077239 71.02017742 -24.09765625 66.65625 C-24.07625016 58.10409675 -24.04108842 49.55208136 -24 41 C-28.62 41 -33.24 41 -38 41 C-38 39.02 -38 37.04 -38 35 C-35.03221901 32.22368875 -32.21464562 31.81178275 -28.30859375 31.42578125 C-27.50091553 31.34368408 -26.6932373 31.26158691 -25.86108398 31.17700195 C-25.24692627 31.11859131 -24.63276855 31.06018066 -24 31 C-24.04713135 30.42556152 -24.0942627 29.85112305 -24.14282227 29.25927734 C-25.31214513 12.93480659 -25.31214513 12.93480659 -22.3125 8.51171875 C-19.93351668 6.9794222 -17.64732286 5.99074053 -15 5 C-13.42800758 4.05731827 -11.86507971 3.09932298 -10.3125 2.125 C-6.31885757 -0.26667287 -5.24705559 0 0 0 Z " fill="#010101" transform="translate(777,86)"/>
<path d="M0 0 C9.29275326 6.91553731 12.7876846 15.77498566 14.6875 27 C14.92705176 31.56734344 14.95803554 36.13455265 14.98266602 40.70727539 C14.99409753 42.17807707 15.01440669 43.64884023 15.04418945 45.11938477 C15.32597027 59.07147056 13.82897453 72.63960414 4.3046875 83.58984375 C-0.40906537 87.86538341 -5.81164792 87.7233624 -11.9296875 87.4765625 C-17.64016263 86.67208448 -20.96382846 84.62722019 -24.76171875 80.37890625 C-32.27589142 69.88614262 -32.9691822 56.68540029 -32.83398438 44.27709961 C-32.8124829 41.9356375 -32.83393329 39.59723091 -32.859375 37.25585938 C-32.88120699 25.62707091 -31.78997438 13.82002576 -23.92578125 4.58984375 C-17.18346222 -2.05452391 -8.98901437 -2.71366471 0 0 Z " fill="#FBFBFB" transform="translate(429.3125,124)"/>
<path d="M0 0 C0.01213028 1.68129753 0.01213028 1.68129753 0.02450562 3.39656067 C0.10190904 13.94720429 0.18963355 24.49771803 0.28752708 35.04819202 C0.3375246 40.47261295 0.38385434 45.89701406 0.421875 51.3215332 C0.45868413 56.55411951 0.50503215 61.78654149 0.55806351 67.01898766 C0.57663073 69.01768811 0.59173003 71.01642382 0.60334396 73.01517677 C0.62016659 75.80952495 0.64919187 78.60349486 0.68115234 81.39770508 C0.68331253 82.22848572 0.68547272 83.05926636 0.68769836 83.91522217 C0.74447133 87.78738432 0.80294627 89.70441941 3 93 C5.38384315 93.76161182 5.38384315 93.76161182 8.0625 94.125 C12.9193825 94.9193825 12.9193825 94.9193825 14 96 C14 97.98 14 99.96 14 102 C-3.49 102 -20.98 102 -39 102 C-39 100.02 -39 98.04 -39 96 C-34.71 95.01 -30.42 94.02 -26 93 C-25.93230558 83.51653235 -25.87723118 74.03322436 -25.84456348 64.54957008 C-25.82888706 60.14623689 -25.80761302 55.74307712 -25.77368164 51.33984375 C-25.74115825 47.09289209 -25.72316189 42.84610754 -25.71536827 38.59904099 C-25.70981208 36.97625471 -25.69896257 35.35347788 -25.68280983 33.73076248 C-25.66112822 31.4630459 -25.65802909 29.19602569 -25.65942383 26.92822266 C-25.65276199 25.63582672 -25.64610016 24.34343079 -25.63923645 23.01187134 C-25.81781441 21.52099503 -25.81781441 21.52099503 -26 20 C-28.90092502 18.06604999 -29.89674737 17.69868059 -33.1875 17.375 C-34.445625 17.25125 -35.70375 17.1275 -37 17 C-37 15.02 -37 13.04 -37 11 C-35.7625 10.5875 -34.525 10.175 -33.25 9.75 C-32.43015625 9.47542969 -31.6103125 9.20085937 -30.765625 8.91796875 C-28.86244026 8.28626195 -26.95596305 7.66441669 -25.046875 7.05078125 C-19.56357067 5.27222228 -14.35310794 3.39283047 -9.23046875 0.734375 C-6.13869618 -0.28358164 -3.2343523 -0.04417423 0 0 Z " fill="#050505" transform="translate(723,115)"/>
<path d="M0 0 C4.16653186 -0.08777806 8.33282276 -0.14065272 12.5 -0.1875 C13.67304688 -0.21263672 14.84609375 -0.23777344 16.0546875 -0.26367188 C26.0032045 -0.34750769 32.808711 1.12036643 40.23828125 8.0390625 C46.6939112 15.22470826 47.33375546 23.59778061 47.20703125 32.90625 C46.68553447 40.69918296 44.45091451 46.61687329 39.03515625 52.30859375 C32.49520574 57.7439077 24.89710878 59.15093283 16.625 59.25 C15.33851563 59.27578125 14.05203125 59.3015625 12.7265625 59.328125 C7.9748518 58.90973538 4.63383419 57.76620421 1.35185242 54.21832275 C-0.2943684 51.51695605 -0.36349527 49.92001687 -0.34057617 46.77246094 C-0.34034958 45.73168396 -0.34012299 44.69090698 -0.33988953 43.61859131 C-0.32440567 42.50179993 -0.30892181 41.38500854 -0.29296875 40.234375 C-0.28872391 39.08584045 -0.28447906 37.93730591 -0.28010559 36.75396729 C-0.26331333 33.0857397 -0.22565898 29.41806153 -0.1875 25.75 C-0.17245392 23.26302877 -0.15876539 20.77604892 -0.14648438 18.2890625 C-0.11340796 12.19252088 -0.06320256 6.09629969 0 0 Z " fill="#FBFBFB" transform="translate(230,149)"/>
<path d="M0 0 C0.85809265 0.01056427 1.7161853 0.02112854 2.60028076 0.03201294 C3.98778534 0.07393265 3.98778534 0.07393265 5.40332031 0.11669922 C6.35909973 0.13602509 7.31487915 0.15535095 8.29962158 0.17526245 C10.32395157 0.22017741 12.34812289 0.27280281 14.37207031 0.33251953 C17.45533181 0.42064038 20.53803271 0.4774866 23.62207031 0.53076172 C25.59086684 0.57835349 27.55962018 0.62777409 29.52832031 0.67919922 C30.44522644 0.69500031 31.36213257 0.71080139 32.30682373 0.7270813 C38.90677401 0.9505199 43.96914741 1.89754907 49.10644531 6.35888672 C51.99282047 9.80033402 52.1439476 12.47439311 52.05957031 16.85498047 C51.33849047 22.22015785 48.67921057 25.78962492 44.45410156 29.05810547 C36.25185629 34.2777161 28.48212653 35.68966322 18.91894531 35.67138672 C18.04036865 35.66977539 17.16179199 35.66816406 16.2565918 35.66650391 C8.08474749 35.51247487 1.76426632 33.78472309 -5.20605469 29.48388672 C-9.66180337 24.75809266 -11.5141645 21.19013413 -11.76855469 14.73388672 C-11.58807501 9.86093536 -10.54133509 7.03670718 -7.26855469 3.29638672 C-6.81647644 2.75593719 -6.36439819 2.21548767 -5.89862061 1.65866089 C-3.79966558 -0.09547199 -2.70882796 -0.05525636 0 0 Z " fill="#F9F9F9" transform="translate(508.2685546875,221.70361328125)"/>
<path d="M0 0 C0.88444794 0.02169754 1.76889587 0.04339508 2.68014526 0.06575012 C4.5548738 0.11505033 6.4294174 0.17186715 8.30371094 0.2355957 C11.14759929 0.33095529 13.99123143 0.40086489 16.8359375 0.46679688 C18.66150171 0.51800762 20.48702518 0.57069608 22.3125 0.625 C23.15346222 0.64596237 23.99442444 0.66692474 24.86087036 0.68852234 C37.98147471 1.16693799 37.98147471 1.16693799 43.24609375 4.5546875 C46.55036374 8.53675647 47.97730362 11.64057847 47.55859375 16.87890625 C46.12963012 23.30370395 42.71563071 27.03643103 37.2421875 30.51953125 C29.86339684 34.82884129 22.46066464 35.48880382 14.1171875 35.45703125 C12.85358398 35.48120117 12.85358398 35.48120117 11.56445312 35.50585938 C2.76817775 35.51263095 -5.4359788 33.31659377 -11.9453125 27.14453125 C-15.87819161 22.10237855 -16.57562085 18.10035661 -16.33984375 11.734375 C-15.78378878 8.08423199 -14.35457421 5.89797321 -11.9453125 3.14453125 C-11.48689972 2.60375443 -11.02848694 2.0629776 -10.55618286 1.5058136 C-7.63445426 -0.96322281 -3.64388059 -0.13276714 0 0 Z " fill="#F9F9F9" transform="translate(615.9453125,221.85546875)"/>
<path d="M0 0 C5.40708168 2.56699837 8.77331943 6.36116869 11.5078125 11.61328125 C13.87462582 19.32141652 13.78872111 30.26714927 10.75 37.75 C7.10801789 44.28001002 2.2764027 46.47975599 -4.625 49.4375 C-11.885 49.4375 -19.145 49.4375 -26.625 49.4375 C-26.625 33.2675 -26.625 17.0975 -26.625 0.4375 C-18.4572544 -2.82959824 -8.39049088 -2.9756231 0 0 Z " fill="#FCFCFB" transform="translate(256.625,88.5625)"/>
<path d="M0 0 C4.76126873 2.17684465 7.12250281 6.2568492 9 11 C10.29152225 16.42832419 10.22190189 21.75961052 10.25 27.3125 C10.270625 28.31990234 10.29125 29.32730469 10.3125 30.36523438 C10.34951576 37.46763405 9.68509302 43.08910364 5.5625 49.09375 C2.03641128 52.26722985 -0.72602299 53.46146293 -5.5 53.75 C-10.25325212 53.4435489 -13.25784627 52.45194394 -16.5625 48.98046875 C-23.75650153 39.06916773 -23.34510598 25.74145836 -22 14 C-20.92403963 10.04452274 -19.57872747 7.16938572 -17 4 C-16.319375 3.13375 -15.63875 2.2675 -14.9375 1.375 C-10.06970528 -0.90354221 -5.26023539 -0.81968438 0 0 Z " fill="#F9F9F9" transform="translate(531,123)"/>
<path d="M0 0 C4.89999577 2.44999789 7.17484231 6.9718695 9 12 C11.31954954 22.41493103 12.02626235 36.50639411 7.21484375 46.21484375 C5.0093172 49.45576218 2.4490832 51.2754584 -1 53 C-5.21019538 53.43011819 -8.88692855 53.4699635 -12.8125 51.8125 C-18.37911691 47.20016027 -21.51285665 41.518234 -22.28857422 34.32348633 C-22.40198477 31.37657609 -22.40942155 28.44877954 -22.375 25.5 C-22.38660156 24.50613281 -22.39820313 23.51226562 -22.41015625 22.48828125 C-22.38236674 15.47606251 -21.58739885 9.86308018 -17.59765625 3.90625 C-12.32631746 -0.92245729 -6.90069219 -1.12062523 0 0 Z " fill="#FAFAF9" transform="translate(634,123)"/>
<path d="M0 0 C4.30543683 2.23551528 7.60229159 4.7579005 10 9 C10.82568632 14.02994625 10.56729109 17.84440704 8.3125 22.4375 C5.16506398 25.92519938 3.2031197 27.76074718 -1.58984375 28.28125 C-5.67166639 28.41274496 -9.07915285 28.33307237 -12.9375 26.9375 C-16.56974855 23.52538773 -18.83671399 20.49205559 -19.1640625 15.49609375 C-18.83537166 10.24486621 -18.06539623 6.62589393 -14 3 C-9.45909946 0.00713373 -5.32232001 -0.9580176 0 0 Z " fill="#040404" transform="translate(715,69)"/>
</svg>
