<svg xmlns="http://www.w3.org/2000/svg" version="1.1" width="200" height="64.258" viewBox="0 0 200 64.258">
  <path d="M36.523 15.235q2.88 -0.021 5.761 -0.03 1.339 -0.004 2.675 -0.014 1.294 -0.009 2.587 -0.012l0.982 -0.006c2.678 -0.025 5.64 0.081 7.735 1.994 1.398 1.533 1.837 2.963 1.826 5.009 -0.133 1.107 -0.636 1.916 -1.254 2.825l-0.342 0.549c-0.991 0.963 -2.507 1.951 -3.918 2.014l-0.428 -0.025v0.39l0.386 0.029c0.967 0.083 1.833 0.183 2.738 0.557l0.356 0.144c1.75 0.78 2.973 1.967 3.77 3.704 0.699 1.836 0.515 3.922 -0.22 5.722 -1.179 2.119 -3.063 2.953 -5.274 3.711l-0.553 0.201c-2.015 0.617 -4.303 0.411 -6.396 0.404l-0.908 -0.001q-1.183 -0.001 -2.364 -0.005 -1.212 -0.003 -2.424 -0.004 -2.368 -0.003 -4.736 -0.01v-1.368l0.442 -0.058 0.583 -0.088 0.576 -0.082c0.697 -0.206 0.904 -0.343 1.328 -0.942 0.116 -0.71 0.098 -1.415 0.089 -2.133v-0.658a310.155 310.155 0 0 0 -0.013 -2.156l-0.004 -1.494a830.415 830.415 0 0 0 -0.017 -3.532q-0.012 -2.011 -0.017 -4.021a2532.266 2532.266 0 0 0 -0.039 -8.271l-0.835 -0.381 -0.47 -0.215c-0.536 -0.219 -1.05 -0.321 -1.625 -0.38z" fill="#040403"/>
  <path d="m102.636 22.388 0.516 -0.007c1.364 0.006 2.649 0.247 3.878 0.861q0.659 0.044 1.32 0.062l0.392 0.012q0.62 0.019 1.242 0.036l0.841 0.026q1.032 0.031 2.064 0.06v1.953h-3.516l0.476 0.83c0.844 1.473 0.866 2.974 0.695 4.638 -0.57 1.776 -1.624 3.25 -3.272 4.15 -2.069 0.897 -3.917 0.982 -6.144 0.87 -1.256 -0.053 -1.256 -0.053 -2.348 0.502 -0.442 0.681 -0.433 1.1 -0.345 1.898l0.195 0.586c1.058 0.414 2.052 0.448 3.177 0.451l1.052 0.015q0.818 0.008 1.638 0.014c5.238 0.042 5.238 0.042 6.894 1.683 1.083 1.259 1.223 2.355 1.167 4.01 -0.193 2.099 -1.233 3.571 -2.832 4.911 -3.099 2.254 -7.291 2.597 -10.984 2.036 -2.129 -0.372 -3.541 -1.125 -4.945 -2.78 -0.62 -0.96 -0.591 -2.209 -0.439 -3.308 0.563 -1.38 1.622 -2.263 2.929 -2.929h0.39v-0.39l-0.415 -0.11a3.792 3.792 0 0 1 -1.929 -2.234c-0.099 -1.293 0.154 -2.226 1.001 -3.223 2.138 -1.857 2.138 -1.857 2.714 -1.857a15.008 15.008 0 0 0 -1.343 -1.209c-1.31 -1.144 -2.059 -2.454 -2.222 -4.205 -0.072 -1.81 0.293 -3.373 1.441 -4.803 1.822 -1.895 4.147 -2.585 6.714 -2.551" fill="#020202"/>
  <path d="M127.149 23.243a32.016 32.016 0 0 0 1.278 0.062l0.77 0.025 0.808 0.023 0.813 0.025 1.994 0.06v1.953h-3.321l0.476 0.915c0.872 1.678 0.882 3.234 0.403 5.042 -0.6 1.788 -1.561 2.826 -3.223 3.699 -2.164 0.971 -4.433 1.196 -6.774 0.732 -0.686 -0.111 -0.686 -0.111 -1.221 0.427l-0.403 0.512 -0.195 0.195c-0.099 0.986 -0.099 0.986 0.354 1.831 0.597 0.443 1.079 0.537 1.802 0.543l0.478 0.006 0.516 0.004 1.09 0.017q0.855 0.012 1.711 0.02 0.828 0.008 1.655 0.024l0.508 0.002c1.865 0.037 3.641 0.47 4.972 1.849 0.946 1.448 1.192 2.903 0.886 4.602 -0.597 2.249 -1.973 3.804 -3.967 4.975 -0.992 0.532 -1.969 0.808 -3.073 1.018l-0.517 0.099c-3.17 0.567 -6.878 0.53 -9.702 -1.201 -0.902 -0.667 -1.43 -1.395 -1.792 -2.462 -0.168 -1.174 -0.204 -2.223 0.512 -3.211 0.763 -0.865 1.567 -1.56 2.612 -2.063l0.195 -0.39 -0.415 -0.11c-0.86 -0.43 -1.498 -1.178 -1.929 -2.039 -0.158 -1.056 -0.108 -1.932 0.452 -2.856 0.761 -1.025 1.781 -1.765 2.868 -2.417h0.39c-0.356 -0.396 -0.668 -0.633 -1.136 -0.903 -0.83 -0.618 -1.279 -1.336 -1.795 -2.222l-0.366 -0.622c-0.499 -1.693 -0.448 -3.648 0.366 -5.237 1.102 -1.857 2.843 -3.075 4.922 -3.631 2.243 -0.329 4.932 -0.328 6.991 0.701" fill="#020202"/>
  <path d="M88.765 24.617c2.015 1.907 3.311 4.425 3.423 7.219l0.024 0.468c0.074 2.772 -0.759 5.385 -2.557 7.529 -2.006 2.037 -4.587 3.142 -7.44 3.186 -2.888 -0.03 -5.268 -0.916 -7.36 -2.903 -2.337 -2.467 -2.67 -5.34 -2.629 -8.589 0.07 -2.528 1.083 -4.629 2.799 -6.488 3.668 -3.437 9.852 -3.622 13.741 -0.419" fill="#030303"/>
  <path d="m67.995 12.495 0.755 0.005 0.003 0.432q0.03 5.198 0.064 10.396 0.017 2.513 0.031 5.028l0.027 4.381 0.014 2.32 0.014 2.183 0.004 0.802 0.008 1.093 0.004 0.618c-0.005 0.482 -0.005 0.482 0.222 0.871 0.504 0.135 0.504 0.135 1.087 0.22l0.599 0.099 0.461 0.071v1.368H61.133v-1.368l0.456 -0.072 0.593 -0.099 0.59 -0.096c0.536 -0.084 0.536 -0.084 0.898 -0.514 0.059 -0.436 0.059 -0.436 0.05 -0.949l0.003 -0.607 -0.002 -0.669 0.002 -0.702q0.002 -0.955 0 -1.91v-1.997q0.001 -1.677 -0.002 -3.354 -0.003 -1.94 0.001 -3.88 0.003 -1.664 0.001 -3.328 -0.001 -0.994 0.001 -1.989 0 -1.108 -0.003 -2.217l0.002 -0.669 -0.003 -0.607v-0.53c-0.01 -0.461 -0.01 -0.461 -0.44 -0.809 -0.475 -0.09 -0.475 -0.09 -1.001 -0.122l-0.538 -0.044 -0.414 -0.029v-1.368l0.515 -0.137c1.406 -0.385 2.733 -0.824 4.07 -1.416 0.728 -0.303 1.296 -0.409 2.082 -0.404" fill="#050505"/>
  <path d="M151.758 16.796v6.25h5.079v1.758h-5.079q0.018 2.528 0.046 5.058 0.013 1.175 0.021 2.349 0.008 1.135 0.023 2.268 0.005 0.432 0.007 0.863 0.003 0.606 0.014 1.213l0.006 0.696c0.104 0.851 0.43 1.476 0.917 2.173 0.511 0.342 0.946 0.286 1.554 0.272l0.682 -0.015a15.008 15.008 0 0 0 2.003 -0.229c0.251 0.414 0.399 0.672 0.359 1.163 -0.386 0.942 -1.661 1.344 -2.527 1.777 -0.956 0.389 -1.911 0.439 -2.934 0.454l-0.396 0.008c-1.228 -0.012 -2.114 -0.326 -3.047 -1.132 -1.083 -1.263 -1.466 -2.443 -1.461 -4.103v-0.422q0 -0.684 0.006 -1.37l0.002 -0.953q0.003 -1.252 0.01 -2.502 0.006 -1.279 0.008 -2.557 0.006 -2.505 0.019 -5.011h-2.734v-1.172c0.579 -0.542 1.13 -0.622 1.893 -0.698l0.478 -0.049 0.363 -0.034 -0.028 -0.34c-0.228 -3.189 -0.228 -3.189 0.357 -4.052 0.465 -0.299 0.911 -0.492 1.429 -0.686a53.027 53.027 0 0 0 0.915 -0.561c0.779 -0.467 0.989 -0.415 2.014 -0.415" fill="#010101"/>
  <path d="M83.85 24.219c1.815 1.351 2.497 3.082 2.868 5.274 0.047 0.892 0.053 1.784 0.058 2.677q0.003 0.431 0.012 0.861c0.055 2.725 -0.237 5.375 -2.098 7.514 -0.92 0.835 -1.976 0.807 -3.171 0.759 -1.116 -0.157 -1.765 -0.556 -2.506 -1.387 -1.468 -2.049 -1.603 -4.627 -1.577 -7.052q0.004 -0.686 -0.005 -1.372c-0.004 -2.271 0.209 -4.577 1.745 -6.38 1.317 -1.298 2.917 -1.427 4.673 -0.896" fill="#FBFBFB"/>
  <path d="m141.211 22.461 0.005 0.663q0.023 3.091 0.051 6.182 0.015 1.589 0.026 3.179 0.011 1.533 0.027 3.066 0.006 0.585 0.009 1.172 0.005 0.819 0.015 1.637l0.001 0.491c0.011 0.756 0.022 1.131 0.451 1.775 0.465 0.149 0.465 0.149 0.988 0.22 0.948 0.155 0.948 0.155 1.16 0.366v1.172h-10.351v-1.172l2.539 -0.586q0.02 -2.778 0.03 -5.557 0.004 -1.291 0.014 -2.58 0.009 -1.244 0.012 -2.488l0.006 -0.95q0.005 -0.664 0.005 -1.329l0.004 -0.764 -0.07 -0.589c-0.566 -0.378 -0.761 -0.449 -1.404 -0.512l-0.745 -0.074v-1.172l0.732 -0.244 0.485 -0.162q0.557 -0.185 1.118 -0.364c1.071 -0.347 2.088 -0.714 3.09 -1.234 0.603 -0.199 1.172 -0.152 1.803 -0.143" fill="#050505"/>
  <path d="M44.921 29.102q1.221 -0.024 2.441 -0.037l0.694 -0.015c1.943 -0.016 3.273 0.27 4.723 1.622 1.261 1.404 1.386 3.039 1.361 4.856 -0.102 1.522 -0.538 2.677 -1.596 3.79 -1.278 1.062 -2.761 1.337 -4.377 1.356l-0.761 0.015c-0.928 -0.082 -1.581 -0.305 -2.222 -0.998 -0.321 -0.527 -0.335 -0.839 -0.33 -1.455V37.619l0.009 -0.661 0.003 -0.679q0.006 -1.075 0.018 -2.149l0.008 -1.457q0.01 -1.786 0.029 -3.572" fill="#FBFBFB"/>
  <path d="m99.272 43.302 0.508 0.006 0.547 0.016 0.565 0.012q0.593 0.013 1.187 0.031 0.903 0.024 1.807 0.039l1.154 0.029 0.542 0.009c1.289 0.044 2.278 0.228 3.282 1.1 0.563 0.672 0.593 1.195 0.576 2.05 -0.141 1.048 -0.66 1.745 -1.486 2.383 -1.602 1.02 -3.12 1.295 -4.987 1.292l-0.52 -0.001c-1.596 -0.03 -2.83 -0.367 -4.192 -1.208 -0.87 -0.923 -1.232 -1.62 -1.282 -2.88 0.035 -0.951 0.24 -1.504 0.878 -2.234l0.267 -0.32c0.41 -0.342 0.623 -0.335 1.153 -0.324" fill="#F9F9F9"/>
  <path d="m120.302 43.331 0.523 0.013q0.549 0.015 1.099 0.033 0.832 0.027 1.667 0.045l1.07 0.031 0.497 0.012c2.562 0.093 2.562 0.093 3.591 0.755 0.645 0.777 0.924 1.384 0.842 2.407 -0.279 1.255 -0.945 1.984 -2.015 2.664 -1.441 0.841 -2.886 0.97 -4.516 0.964l-0.498 0.009c-1.718 0.001 -3.321 -0.427 -4.592 -1.633 -0.768 -0.984 -0.904 -1.767 -0.858 -3.01 0.109 -0.713 0.388 -1.14 0.858 -1.678l0.271 -0.32c0.57 -0.482 1.35 -0.32 2.061 -0.294" fill="#F9F9F9"/>
  <path d="M50.122 17.298c1.057 0.501 1.714 1.243 2.248 2.268 0.462 1.506 0.445 3.644 -0.148 5.105 -0.711 1.276 -1.655 1.705 -3.003 2.283H44.922v-9.571c1.596 -0.638 3.562 -0.666 5.201 -0.085" fill="#FCFCFB"/>
  <path d="M103.711 24.023c0.929 0.425 1.392 1.222 1.758 2.148 0.252 1.061 0.239 2.102 0.244 3.187l0.012 0.596c0.007 1.388 -0.123 2.485 -0.927 3.658 -0.689 0.619 -1.229 0.853 -2.161 0.909 -0.928 -0.06 -1.515 -0.253 -2.16 -0.931 -1.406 -1.936 -1.325 -4.539 -1.063 -6.832 0.21 -0.772 0.473 -1.334 0.976 -1.953l0.403 -0.512c0.95 -0.445 1.89 -0.428 2.917 -0.268" fill="#F9F9F9"/>
  <path d="M123.828 24.023c0.957 0.478 1.402 1.362 1.758 2.344 0.453 2.034 0.591 4.786 -0.348 6.682 -0.431 0.632 -0.93 0.988 -1.605 1.326 -0.822 0.084 -1.541 0.092 -2.307 -0.232 -1.088 -0.901 -1.699 -2.011 -1.851 -3.416a35.018 35.018 0 0 1 -0.017 -1.723l-0.007 -0.588c0.005 -1.37 0.161 -2.466 0.939 -3.629 1.031 -0.944 2.09 -0.982 3.438 -0.764" fill="#FAFAF9"/>
  <path d="M139.649 13.477c0.84 0.437 1.485 0.929 1.953 1.758 0.161 0.982 0.111 1.727 -0.329 2.624 -0.615 0.681 -0.998 1.04 -1.934 1.142 -0.797 0.026 -1.463 0.01 -2.216 -0.262 -0.709 -0.666 -1.153 -1.259 -1.217 -2.234 0.064 -1.026 0.215 -1.733 1.009 -2.441 0.886 -0.584 1.695 -0.773 2.734 -0.586" fill="#040404"/>
</svg>
